<mxfile host="app.diagrams.net" modified="2023-08-27T17:03:38.434Z" agent="Mozilla/5.0 (Macintosh; Intel Mac OS X 10_15_7) AppleWebKit/605.1.15 (KHTML, like Gecko) Version/16.6 Safari/605.1.15" etag="xKXpRTx2wEfpkPLjo62q" version="21.6.9" type="device">
  <diagram name="Seite-1" id="reEZf6WCX46lujatulCW">
    <mxGraphModel dx="1207" dy="730" grid="1" gridSize="10" guides="1" tooltips="1" connect="1" arrows="1" fold="1" page="1" pageScale="1" pageWidth="827" pageHeight="1169" math="0" shadow="0">
      <root>
        <mxCell id="0" />
        <mxCell id="1" parent="0" />
        <mxCell id="TTm3QigrfbMDNvQ2oBst-1" value="&lt;font style=&quot;font-size: 12px;&quot;&gt;User&lt;/font&gt;" style="shape=umlActor;verticalLabelPosition=bottom;verticalAlign=top;html=1;outlineConnect=0;" vertex="1" parent="1">
          <mxGeometry x="414" y="90" width="60" height="120" as="geometry" />
        </mxCell>
        <mxCell id="TTm3QigrfbMDNvQ2oBst-4" value="AntragsgrÃ¼n Live Server" style="shape=image;html=1;verticalAlign=top;verticalLabelPosition=bottom;labelBackgroundColor=#ffffff;imageAspect=0;aspect=fixed;image=https://cdn2.iconfinder.com/data/icons/boxicons-logos/24/bxl-spring-boot-128.png" vertex="1" parent="1">
          <mxGeometry x="590" y="370" width="128" height="128" as="geometry" />
        </mxCell>
        <mxCell id="TTm3QigrfbMDNvQ2oBst-8" value="RabbitMQ" style="sketch=0;aspect=fixed;pointerEvents=1;shadow=0;dashed=0;html=1;strokeColor=none;labelPosition=center;verticalLabelPosition=bottom;verticalAlign=top;align=center;fillColor=#00188D;shape=mxgraph.azure.queue_generic" vertex="1" parent="1">
          <mxGeometry x="360" y="630" width="134" height="40.2" as="geometry" />
        </mxCell>
        <mxCell id="TTm3QigrfbMDNvQ2oBst-10" value="" style="endArrow=classic;html=1;rounded=0;" edge="1" parent="1">
          <mxGeometry width="50" height="50" relative="1" as="geometry">
            <mxPoint x="240" y="380" as="sourcePoint" />
            <mxPoint x="412" y="227" as="targetPoint" />
          </mxGeometry>
        </mxCell>
        <mxCell id="TTm3QigrfbMDNvQ2oBst-11" value="&lt;font style=&quot;font-size: 15px;&quot;&gt;1. Provides signed JWTs&lt;/font&gt;" style="edgeLabel;html=1;align=center;verticalAlign=middle;resizable=0;points=[];rotation=-41.3;" vertex="1" connectable="0" parent="TTm3QigrfbMDNvQ2oBst-10">
          <mxGeometry x="-0.1326" y="2" relative="1" as="geometry">
            <mxPoint x="2" y="-18" as="offset" />
          </mxGeometry>
        </mxCell>
        <mxCell id="TTm3QigrfbMDNvQ2oBst-12" value="" style="endArrow=classic;html=1;rounded=0;entryX=0.302;entryY=-0.021;entryDx=0;entryDy=0;entryPerimeter=0;" edge="1" parent="1">
          <mxGeometry width="50" height="50" relative="1" as="geometry">
            <mxPoint x="460" y="230" as="sourcePoint" />
            <mxPoint x="608.656" y="397.3119999999999" as="targetPoint" />
          </mxGeometry>
        </mxCell>
        <mxCell id="TTm3QigrfbMDNvQ2oBst-17" value="&lt;font style=&quot;font-size: 14px;&quot;&gt;2. Subscribes to topics (STOMP)&lt;/font&gt;" style="edgeLabel;html=1;align=center;verticalAlign=middle;resizable=0;points=[];rotation=48.1;" vertex="1" connectable="0" parent="TTm3QigrfbMDNvQ2oBst-12">
          <mxGeometry x="0.2146" relative="1" as="geometry">
            <mxPoint x="-10" y="-32" as="offset" />
          </mxGeometry>
        </mxCell>
        <mxCell id="TTm3QigrfbMDNvQ2oBst-18" value="" style="endArrow=classic;html=1;rounded=0;entryX=0.082;entryY=-0.124;entryDx=0;entryDy=0;entryPerimeter=0;" edge="1" parent="1" target="TTm3QigrfbMDNvQ2oBst-8">
          <mxGeometry width="50" height="50" relative="1" as="geometry">
            <mxPoint x="240" y="500" as="sourcePoint" />
            <mxPoint x="520" y="540" as="targetPoint" />
          </mxGeometry>
        </mxCell>
        <mxCell id="TTm3QigrfbMDNvQ2oBst-19" value="&lt;font style=&quot;font-size: 15px;&quot;&gt;3. Generic events&lt;/font&gt;" style="edgeLabel;html=1;align=center;verticalAlign=middle;resizable=0;points=[];rotation=43.5;" vertex="1" connectable="0" parent="TTm3QigrfbMDNvQ2oBst-18">
          <mxGeometry x="-0.3397" y="1" relative="1" as="geometry">
            <mxPoint x="23" y="4" as="offset" />
          </mxGeometry>
        </mxCell>
        <mxCell id="TTm3QigrfbMDNvQ2oBst-20" value="" style="endArrow=classic;html=1;rounded=0;" edge="1" parent="1">
          <mxGeometry width="50" height="50" relative="1" as="geometry">
            <mxPoint x="487" y="624" as="sourcePoint" />
            <mxPoint x="590" y="500" as="targetPoint" />
          </mxGeometry>
        </mxCell>
        <mxCell id="TTm3QigrfbMDNvQ2oBst-21" value="&lt;font style=&quot;font-size: 15px;&quot;&gt;4. Generic events&lt;/font&gt;" style="edgeLabel;html=1;align=center;verticalAlign=middle;resizable=0;points=[];rotation=-49.8;" vertex="1" connectable="0" parent="TTm3QigrfbMDNvQ2oBst-20">
          <mxGeometry x="-0.3397" y="1" relative="1" as="geometry">
            <mxPoint x="3" y="-25" as="offset" />
          </mxGeometry>
        </mxCell>
        <mxCell id="TTm3QigrfbMDNvQ2oBst-22" value="" style="endArrow=classic;html=1;rounded=0;exitX=0.422;exitY=-0.039;exitDx=0;exitDy=0;exitPerimeter=0;" edge="1" parent="1" source="TTm3QigrfbMDNvQ2oBst-4">
          <mxGeometry width="50" height="50" relative="1" as="geometry">
            <mxPoint x="470" y="220" as="sourcePoint" />
            <mxPoint x="490" y="190" as="targetPoint" />
          </mxGeometry>
        </mxCell>
        <mxCell id="TTm3QigrfbMDNvQ2oBst-23" value="&lt;font style=&quot;font-size: 14px;&quot;&gt;5. User-specific events&lt;/font&gt;" style="edgeLabel;html=1;align=center;verticalAlign=middle;resizable=0;points=[];rotation=48;" vertex="1" connectable="0" parent="TTm3QigrfbMDNvQ2oBst-22">
          <mxGeometry x="-0.1178" y="-1" relative="1" as="geometry">
            <mxPoint y="-17" as="offset" />
          </mxGeometry>
        </mxCell>
        <mxCell id="TTm3QigrfbMDNvQ2oBst-24" value="" style="shape=image;verticalLabelPosition=bottom;labelBackgroundColor=default;verticalAlign=top;aspect=fixed;imageAspect=0;image=data:image/png,iVBORw0KGgoAAAANSUhEUgAAAYMAAAGDCAIAAABGButFAAAAGXRFWHRTb2Z0d2FyZQBBZG9iZSBJbWFnZVJlYWR5ccllPAAAAyBpVFh0WE1MOmNvbS5hZG9iZS54bXAAAAAAADw/eHBhY2tldCBiZWdpbj0i77u/IiBpZD0iVzVNME1wQ2VoaUh6cmVTek5UY3prYzlkIj8+IDx4OnhtcG1ldGEgeG1sbnM6eD0iYWRvYmU6bnM6bWV0YS8iIHg6eG1wdGs9IkFkb2JlIFhNUCBDb3JlIDUuMC1jMDYwIDYxLjEzNDc3NywgMjAxMC8wMi8xMi0xNzozMjowMCAgICAgICAgIj4gPHJkZjpSREYgeG1sbnM6cmRmPSJodHRwOi8vd3d3LnczLm9yZy8xOTk5LzAyLzIyLXJkZi1zeW50YXgtbnMjIj4gPHJkZjpEZXNjcmlwdGlvbiByZGY6YWJvdXQ9IiIgeG1sbnM6eG1wPSJodHRwOi8vbnMuYWRvYmUuY29tL3hhcC8xLjAvIiB4bWxuczp4bXBNTT0iaHR0cDovL25zLmFkb2JlLmNvbS94YXAvMS4wL21tLyIgeG1sbnM6c3RSZWY9Imh0dHA6Ly9ucy5hZG9iZS5jb20veGFwLzEuMC9zVHlwZS9SZXNvdXJjZVJlZiMiIHhtcDpDcmVhdG9yVG9vbD0iQWRvYmUgUGhvdG9zaG9wIENTNSBXaW5kb3dzIiB4bXBNTTpJbnN0YW5jZUlEPSJ4bXAuaWlkOkVENEMwQjMwOTU0MjExRTJCMzIyRDAzOUVERDdENEFDIiB4bXBNTTpEb2N1bWVudElEPSJ4bXAuZGlkOkVENEMwQjMxOTU0MjExRTJCMzIyRDAzOUVERDdENEFDIj4gPHhtcE1NOkRlcml2ZWRGcm9tIHN0UmVmOmluc3RhbmNlSUQ9InhtcC5paWQ6RUQ0QzBCMkU5NTQyMTFFMkIzMjJEMDM5RUREN0Q0QUMiIHN0UmVmOmRvY3VtZW50SUQ9InhtcC5kaWQ6RUQ0QzBCMkY5NTQyMTFFMkIzMjJEMDM5RUREN0Q0QUMiLz4gPC9yZGY6RGVzY3JpcHRpb24+IDwvcmRmOlJERj4gPC94OnhtcG1ldGE+IDw/eHBhY2tldCBlbmQ9InIiPz7GBxmbAABbLUlEQVR42ux9CXgjR5l2d0uWZPmSPR6Pj5nJ2HPfOWZycCSThGQmAZZcBEJ+SIYAgRy7/CwLLLkD7C4sZDlDJkAIu/ATcgILIXcmk5tMkrnvI3N5DtuyJNuyJEvdf8uyWu2u7lJ1VfUl1/v0k8fRdFfX+fX71vF9vCRJuVyOMwDP85pf5PvRb8YD5BUowMsG4UsZGEjGjg093M0QBMEvimIymWSWyNRLlZuVdzFDNjGNi7OWCJIfvHcRDmEwY0o24PkJh8N+s+PTBntMWL/UjQIkQWaArKhe137zTX2GTfUNvE+aI90P0l4Qu1O26gQ2EhgYGJwXaKwKGBgYHIefVYHVFJqpIUvnJiqjlZ3VWYRNQGVOinEiBgYGps4YGBgYHFRneByY+rIlZD3eulVYZ3VW5e1GoSsJrVsgc1a9WrebicoQZpyIgYGBqTMGBgYGtnbGYLOQdL82RJk3gOzcc8k+bM8t7zJOxMDAwCwRAwMDg4PqDOX0inUsFONcDCJdt0F9OKJ0CF/qNlGG1/2sO5tNXUyZGk12ZswoQb/ZvNqgP2lZIkieadkvZ2V5xW8Ctg6EEzS0vqO0KhxSHLwBYqdtKqTJ1BkDA4Nb1Zl1DMjZo1uudblA6ywYdeHG3J6Q1zytXZTONpPVr2CciIGBwXkwS8TAwOAydWaKWLqf/tkwrQipKBShZEM23J+y28QUYevgeRZGyYadq5b2q3LGiRgYGJg6Y2BgYMDYT0SLFVPf2WiKxDq7Lkb4dht2NqLk2dN6Tcm8KIro3Y96zZvq8yhjx7q3Wz2lwDgRAwMDU2cMDAwMBXXmkgUy6yiih7bnOet00U6dbqcyhdxMKx3q5YJIMFPrfaYmKxxsXMaJGBgYmDpjYGBgsN8riJ17Cxm4ilvzsq5L0NrHSOtxWhLMJa5skCyRI5MoKC/lEW6WKL3LbWV35F3un05zW1+VsDqtDZUgkQ0rzvpXaO5h6oyBgcE76oz+8pOSoLIiADG6yp6uyhJKeATeFDl32z5PWkU218dU1YGudPDWeSXI253oWjxQdjtciCBkQwPGiRgYGJwHs0QMDAzuV2dYsghpe54goHPFyvAbiLeUQ2tXnnXSyZRqcMnGSMJ7eDMqD5aODUW28V3wKmOciIGBgakzBgYGBiR1RuksWImOmpqcBxbRdF5qhlTrbBJDuNlt60el3RaA2wqeUrUQVgKSN3jw7SjaByggj9UhSffLIAgu2D2mvOUbO7chPGqHEm6IsIsS2g3GiRgYGFzFiTyO7vgLPYMvYT9e5WtY0PoVOzM8lOnOicNmv8zqT2I40OEXQoTZSKT24nEin1BdE2i3rsh4FI865HcF/U1Bf6MFDc0jMDne+JcSQlVEOXSXJaIetdJmRwSHYg8MjzxPksJJmU+Gq9psq/S9vff3D99PkkJn45ppjR8hdCGyoftsvLc3Vn9+cdudKIqAYpEdQaGeHWxo1GEsLKwPfSDkn1obnFkbnN5QPQtPbDJOhI90tp/QDMmID++w0xKR41D8R+0NH/L7qhmrZ5CRFbdGk1vVv7TUfi1SffKU+vf5+KAniuD5eaK+oXfJEyERdw71vG3d8efYCGQwwonB7+3q+dTLe2dsO3ZPfHiv5y0RXwTKPSAQNZ0G4D9BHo8NbyCvBZlC56Q0ep6pVwIeLcrmhsvWjzXQLxdKe1UGPFTSE4P/+e6RD2w8ckcitY8vB8Iig/cgplwJnEiuaCrpJIZ3M1rEUKmQv7WyPZL5UVZMuTOH+jPW1DcjEB5DN0J0aDOtiugZeqMxvIizJRQtreMrhdkinxCy/eOs/22Ezol6kihJyCU1TMBln+1o8q+L29bUh2baM5bRbxbMMjFTRA4CUwkaSrPUVmqWaPAhz40TmRYd7P8T++BbqEI5VPFitRin2GfePfLBEwNvkitTUxK1rCnwtjrrHfoLxRYaynR7rgYOxb+SzvYzk8FgCttPXEpijKyAhy2RbDiGR16gmGDf0DterIeD/Y+xocXgdWMk6BInhWoSyjRLSWx8eCdthoU/AYyiQy3C0YE7XEKLvKJQWJEL2NXzTffoAA9zot4hypuABtIPu3ZlgdEiBurIitt2HP8us0SElZiyYh99dGijF2vDPbSIwVuQv77d8RfckBNBl2q6f+OWRdt/YqnNHu1S7qRFE2evo3exr+/f3CAFypyARXHIgtgjMW6GPNWbtGSyrWfwoVmTPutRWjQtcpltx7LL7rWtjFFKvJ/IE/Ji65HYM9MbP2rpoAaf0mxa9Ko6iw2vtUg5K74yvEeLYo+zLzwDzmcs8Qd3qTNTJ78kM0B5BWTTowbJkaN01+/ViCbfxjieY9txMwiOuXgRrcIEGmJP8Epxhkee7xvcBB+w1BeFNUl5khNZuvEnlnrduyOE0SIGPFg03YEOT/onItn4UxYD6UfS2Ts86gdPpkXTbZwtYrAUIf951VUzgf75albcRv1dPYMPzZn8uQltiSAkVpcBZsXUQPphS7MUT+1qqT0Dm3M6W5+7e3+8qPUOG15kygfgaJbuMNsBuFEXtxuPnkOSz8bqz9tTIdTRVvcJiMdIuWaGMgePDfxJ/naSv6tw2smsU2CK8J46s2HLT9/Qa979kPYP/8K7k+4M6KgPzWyrP/eUjh8uan3KLyyg8AGmfWihwi2RDVt+eoa+7+k+ejD2WzZQJw6awotP7vhvcmM0mHHyAzZ67gzhEiWpcJWmu3m+cEloKWgulMeVe9SXPe47+pKbTWXMXNmtp0Xx1F7rsoFeCXj1U+psNKpLcu6yKOdqZVu4woH2RW1rCF+XGjmEWVLVGhhim2p+8R4nSgzvtWK6To+pbuO8DEaLJqBYa6z+AkkKA+lXmTpDRe/QW3a96C+e7pcxNls08dDRcDnJ4/Z8401aIkkauwjppcLagAQlLMSGbdrsk8q+YGqXoO72R358rDybN7y5nBbZWRumNuOBDedejB9WDdWzCdPLFQ+g2X9g0EucSDYNVq/fqxFNbuC8DEaLJhp8QijkP48khaHMEabOyiM+vAvjqeqq83Fft8HrXZPNFk00gDshvQIDj/rgLH2RB4IT5ihkGGU1oezBlr4hnBm12sApeFXTM/T93HhvCSgn0Uo/CULhEuQ/Ry/7ab/jtMhUJ7FOuJlLUFkNdF5sltNHOlnlab15bLyjhDkDbYLx40Zjx0ucqH/4SYynpkY+hs/CUh4LgsZoEYNH4R+zf6aMJZV7TD4VTW7Gm9sPBzrqglfiTTD1Db3ZVL3I0w0s06L+ocsKodwofqpRm5h8ypNKChZ0SFsopUEeFBJEPZQeWFd4lQDLoX7KAlx9oHBpQt6OmDLeBp/qqvP8Qqg2uAh3GL9kvgmcdw+iwd7of3IOuU90YW1gKErHPE/ynFNRv9naGWTWBmeDT23g1NH/Yk7jpbIvJD0YBA0sRc/g3xn/ZygLktiwE8ISpbP98nDCsUTBOVx+n8Vc7FfHUzsroIcdiP2MDbOJgP7hX3g05wKHNu1vil1DbsaLYIu9tSdSPV/+L4mvg77kOkLV6Qav8nlaNPR3+4m3qyqBXGO6JBtGmpcweFld8EpaalosAr0OvcGJYrhbexS2iX0kR/7I5LwZBE2Dg4wWVToSZPw95J/uMCdyP/DcdKitT6R6Gfbbo8lNFdBNU9kXFVrEUJE4FHuA5PFI9SkOZl5AZNe0WDpGytHkFtyaXaaRaZiMzLNB0ABadK/jy1j2r6aZDY7gUf14NLEWby5Vge50qqkYiHjmonB/mXhnYHAi8J/KvgOeYNl0+obewKzZ0Dwl8bpgF3YL9Q79YXbzdYhFBssFqQTbadEL0eTmRho7pNBn+khfxNH5ClqXQwuLL3FGe9A16Q9lunf3Xk3yquqq82oC7bQ6LYZx8IA6i6XWYTzlFxZoliQbqz+Pl4GsuK0C1vIL6E6w4B+VhqOJFzd2X0OYSHPNR5wthd/sFx6bPeI9KJsAPM4ZCV2k4V+R0DLsNc6+5DthvQU4U+FzyWuDhln/ZSJ9dX3Qpm0jpkpKq7Ph5dCGSMjmMwerQJkHJVI7D8UeIBRlBXQ0rIRXC0p/RrnZqOrcHmUontqF92BD6GRABs/ncOMS9g49Py3yETdUSMh/HmHP6xlca5slYiDBsYGH46m39Uh6jEo8D5Vc+ILjkancbon6ki/hPdgUXqr5hWT/6GDmkXT2djfEEeuoX703SmSJjg3eNbWBxUTzAORPDhW+UxYzmj7teGGFstyVZIkB5jQDIeWcmJLVBB5x0B1p2FNFXH6zhrlz+co6At3QzC21Z5JHcTg28GzFLBsxEGJyzVeVjzReBHY7LJGzwN7IEwmdbfA7/q6ivuSrbqgTnxCaWv+PpJZo8IHK2K7JQKqJhAUzm1e7ISeutkRx3I08k8L6EVwbCHYV9Q//zSXV0lZ/PiEtyorbKmO7JgMhZjd/xyU6vbCfSKFboMTQ/qFH0gzv0Vt00EnASLP0JjG9VteHZsvJqjZHjP1eF5wpj2E8P0fyU/HhvQUea3IHlqQpKYljPTl5gQ81h688NngnScMfiP2U5HGKa0eqlRdOr34okH+okxycbXHQzHsGbXV3T649A55z6IAtf7OecQAbVHI1J0pmuvFMRm3g47KEMfrXxuqLCdTiepdUztSGywhpUSr7ImMEExmyGZo9+XPuyY97LVF0+F28B5vDMBf64Oo+OmKpN1xSOTKj7iCeLWJgZshdlgiI0MW7IehTX/I5vAfrRg95qB17q2l2uGoadpZG1/IxtiRRrsxC2VprzyNfRGPAVZQYTvfdgs7G+91mhtzLiXJiajDzKN6z8G17hF7p3BMETVagjBYxmELIf97J7S9Pa/yIC/PmUksUHcZev/88lXuMEE+5KAhaW935hJH2GCYIZPosU6HTpv7SQf+wdCyReotT8QI1XXnuWgwCVrqA+GD5q3/4NbzyNIROU+VQPxuR0GnY9dWb/IFZck7dXWGpxvjg9IYbHJInPK1SwKuOyqIUniNNsCOpXGRohT/YjYtDwxWY0fjNqZEPyx1mtNBi8VIqQROvDB6njI4yHW9AOL+E73gB8Bugs1wtAf/PGz9VAvbmnfrQXKlcVutC88gE2mYlaA+Yed6odqBVZ6bS1fEspUk1y0Pxc+1fCCuMRFveQied8gNDp214o4aDJsir7nHL2v7h+AOt9SuM+yFvPKhRagNSzxBTMC4dN6qzRGov3vp92UmiAmoCHSTZi6e2uqq6Zk26nakPBjjcH9/Fb+2+MUzSgbltpzZwRSK9F0KJlX8gOdHel3xyRtMnyrMd6/e6FaSNrPwbQp+LYx3Qs027OehLX7KlgO7HkfjvJ9eejjqEUUIn0rVELqyy2DDmtp3BzKObjz1qdfZkE5bO9rvqLPu0hqtdZYkYXIjBzCOJ1E2en7G2DfIgl6vM5Y3an9zoqvzUBbum1N7BBluFIeQ/NxL6nHKRJ9id+LN71ZmE5mlNj9CZOXYCkr3iL5oZLLPONxxBX/KlKXXnOK4+1C/tqL/0+OBd7q86JB+JjgpJU2/nUcYFLqbUXtnR8GHlf/f2dRA2ce/QD1Ij1yh0HuZZUQlVBrEJyhCGnFxF0LOFfxLcN8hfdf9wiqV+6TavGnL3aq/7T8YjKhhtdReRJ3I45lJH5q6zRLLZ9kS3SKT3uC1LUxv+wS/MZyO2UhEOtJNrtGODd7rTNZXAKZu08juexMKl/tHEpacfjO5R3iWpDon1D3kmslg0+Sa8NsDKLP1CJsmMLh8fbK+72TZlqHtMcWybGpA38J8gj0tG5wZp1xiFC/4W2jmf1nA1edMdTTxnIp/klVDuKuhZd3Eit23VgWZ1nQtz1Vp7Xsh/LqMPlYq6YBd5+x5J/Jips3LSLPmkV/pEKvticuSo23LlE0LT6m9gI7aCQX6+Jytud2FccgE7RC+ez23IeZ90tt+eSAa00J98B6V+LBBGhmeCuHwIveW1gcvdVlco4ciNykX4anjPJDwVCCkF+SJa/hCbCoUMT649g3w28GDsXkF15lPJsFgE9cOSXuJEUZdt0imLvmGX2s0ZkRsZd6hgkHuDGY1LvoWpM4OBjRvazCkMZh515zJEXbCrIXgdG7GVira688lpUXfiMWaJdIAd2sxhgVb0o2R/fCi4RpjR6AqnfGDGFP6Pp/epw9S7IJrFBjmjZNXvq24Of4K46/4imem2LfOesUSJ1B7Og4int7gzY+Gqtik17Ix+xWJa5DLyRI4k/uaeEgmSBQA/FGX/qS/5hhc7RF/yYZL6IWEZZdFRf4nVTMceeCK3Rq8jyjlnmHLAF2klPml4bOCO1EjUnpYq+6BglpuhvB7lnzSsOObK7TllkRW3a9byUcpO0kHRnw34GqfV/8xtNYboqpGiJeJMBlmGZFVZxnJW4RYwuXYFeeLdiWd0axhvQdyUkdKk4wp1JutV74bf6hl62bV5G43/wc5/VCbqgzPJD38cH/yVS1ZdXOGfKJHehf2s3BgNwVMLNlZrdMf58Ryz3sVfSogOPz+YeYwg829y3JXu7Kw+IdRWe9OhBFvUr0x01F9OuM4zusvxjSm151SUJSoRrSJ9VZZI4DT4+CC+25RpDVfXBbt0swE6oAD/yFeBECaxRPKz6dytQZ8DjtNgXh2KBeyov7gnuSKVXUtdMqDkB+IDBJJ5pf8UVLxTdQgpDkqCNixFNYYXkXgfLeBI4tcQSwSOJpRehxK/W/OL8+qMJLQZN7p3hjADdcG5hCkMuHvhbyo7/1G5OIl4F2sq+2KvCw5/OG+JsEObyZgU/gp5BsJVbYSTKVHcmEj2oDm8vKbqcjZoKxJN4SXkoYC7B/7gUkuEt08P75dECt8TSCR0MiSr6IsvDcFVJJUYTz9lsygruxIkjEdX0002ZEOXrqMvsFJfvydXoLrrvGD1qs9w0dycWa5+RFHkuUBHHWnjyqJkILOPV51zMzWswJtR6kfHEkm0r1KmEa7e5MMEwmoOYQ7HLFFoKUlDZsXtifQ+7Leb7p/mr1oLzn9Idl3uySpGghSzbYTWuvPJq6g78b/2NKLuL86rs2SmWx7GeM/KkiocaKeSDfKpov7h9Zy74ZLzHwzU4RNC5PEU+pL3pLP97p0nAumWrwgU/laWo0aT72JnvSF0EZxUo5N8GlNFdm2cV1cm4DRPGxdcXcZAO834H1AtBnYAPLVi2+kzRJmmjeJcJpg17awbx4GeWn8pefJH4k8I+RDno5eiqox7FNgPdR5HbneHOVFf8jkCS3QyxZwQThWlsi9mcv2cu9FBo78yuBBBfyP56o2zLq6dtESjoc3w1+/rg3MoZqaebKpoVKBtdH9/nd5wLxu3FYn2uo+SJ9KdeM6p/AtqSg9bKQNIWkm4AZeaixulLDPbRAp/a7WpSSIdTxRFoqvMn5FPFSVStlgitSIA6boxgS+glYZrG87IGT5tN57WraAhHZVSnP9jrc+SS7NCLELQj6LOfDDP14UoHP44HP9x2QlmXm+prHCVsgRZX1Msyfi+6iQn6kvib8MxmiTCBvlUUd/wf7n/y+kTQtMbvsEYREWipXYVYQpZcVvPoDO7HJ20RPEU/iwv3UkiKlNFMmLDW9zfX6fUrWDxPyoSzTWnk7fsgf6fOpJ5P6emXhAmbHzqxBR/Vm5OpPZir99z+T2NSwzfCx5z1Tv4Cma+Lri0b5ioNqPDf68PLjCqKDqyAt5MaJhaf8Oe6Iuk2TDT3Kb+Cbt30U1EeUZAeJw3iK5OriHBBCFjsL3u2n39RC2byr7QN7SpKbwYXWxKxvXMAwZEJzC9s/HOokn8DTiy4Vdie1NEHfEUeDztDS9LzTXLmaPrCqVFZ5LPAx5NOBCxms9msz29vUa2FuUkLh4nUv4APybgaWZRuRnlg2PMiTiyzJsqIAonMnUz5DtMnTJYlzLKP7lhD9G4KQwE12iYnAjoqzoDBEGX6OQHJCOQPBf/gDjP4CGMDIET8cacSH6qqanJXwiqZKpzGdWLJEllR75OtUKYv3KPsbyCCUmwMYwzhtKoEu0x7OyQ07GDtO0ymLKIVWNgU9pwKg3mMMQ4P4TZKg1d41HJmzFJkG8/OKhBUwCWC2xTHqHGSo8DDeeK0x4MDAwMzBIxMDC4AqZ9NkogQTV1D20hgMLb1d4c0JUXbybPjriwQNGG5jJGSy1C5DkleWVKmJhS3HgVRa1cShc1lkUl56jKS7GqjiebLpCMxV1p4kmpDWVfsWt9NjIwMDD4NYe56XwJURKETB5DHgf/yWB7gmkihpeyqSI7AmczRqvG8Kg0wv44+vVjZ4KmOjakh6O0F15Jke/xq8/RQNi+qel6O9UHCJSlQMI1L7zVd4iHf1NP4ZXLlJRT+7Sn24KQjBEuO5qqTJT6MdVJ8CrKlNN+SKgIMBs6u2SAlME1ex1XighLeKAoQ2kmTQ6ZOmNgYHAezBIxMDA4Dz+2NEChkdaRc+rSiRZMVYsNOYQ0gULOrQuvbN0+T4gwIdywjtJ7Ifra2TY1JRJBeYXXnyF/oEdAY5yIgYGBqTMGBgaGMa8gCAsuppYqUHgyyj14RBdvDQUjfi52KfB2wRHm2c6M4cl8U93GVHEIexTeii1KexH2H5R0IEIJ/CdwFQyvVlFEq+btfriDTsKdo5Kjm5LxnASgNCH1d1GvXpRRRGvhGdKzTa2Rm8oYyivwLCNeNvD2WNAaDrSyijexi7fXX/MLU2cMDAzuUGe8jZ4WaH1+Gcx+LWlpMTwHTNb1DTy9Rj3zkrFjDZT8jAv3QIPIm+JE1Nf7MN7FOBEDA4PzYJaIgYHBHeqsZJawdrjRWtPBm4EnFAKEE412SlS8eUFTosxUgngz+rQOl5madoW4IjT1doyJWMRhhXLQD28pEC8/eKPA1Aopm7FmYGBwJSeC2Do8h1KSmXQkM+lwlG7Ge1yyLEEb3s4bv9SGJoA5orOsUSTr+wbh2OFpZ5V6JaA0HJXeq7+zEfQFB4k0gOSmHrKKYVkbOAtT8aFgPhxMxTWh1n8R3LArJQXcDKLwdoiHdjAbsI4E5hnhBBmhOxdTrcybqXDI28GKkmj3VQkhY2C5lD9yxiuAZYWtn2PwLIZHjqZz0eTIgeTInqyYkH9JpB8Y17rC/Jqq98l/BP0dQd+U+uC8oL8x4G9iVedaDKT3JTMHs+JQPP3O6NiODWYeVd8QCX2Oy4f86wj6W8OBk8JVHVbE/nNGnXkdxwbWRpPrML8PkuQX6uc0/5NXCpvJxfqHNyYyGxPpp8sG0ZVviKdH70mXfgz5z22qvqg+uKAhtJCNfDcgmemOJt+RTU8s9cuyN4P3yA3aEDq7KXxGY/UiD2uIbDbb29eHTgiRwr8Zs0fY1jIgJBbiwta73demskQReJe2vh6uaisrBGjt6IfpEWP10Ztc3zP0VDz9K1ptH/KvmBz+eGvteYIQQi8O5mEurEhzeIoJUzub6c+grAYXpAQwruF4oZ0TUz3JN08M/lnDevBphTB/Su11rXUXqFkSGIVQUdOlHCrHzSDzOxBJCNQGJAqArhJsamz0vCVKjUTf6T6ZsAm7Gh+cUrvCtZboSOLJnuQjqexaS1ixML+t9qb2+ouZJbLNEoli6tjA80cGflKW1eJhSu0dUxsuK9gjr1giz6/ix4Y3kifSl3zZpaVLbd1wbPWhxI0WmaGCgpPTl9+SHDnKhJINOBL/69vdlxyI32CRGZJxfPCut48sPdD/sEy7vKTO+gBOhEJ8YJsMi1PoOtPsxs638TjRzp4f9iXvIa+I0zt2+MaLFMxVT8LgE8VqkfvQvv77o8P/ZWdvmNHw6ym15+h+/HnjGN/UTy0hxbCjxIkkBNaGt30R5ESDme69fd+npcXQBPi5sybdXhfsUhe5lFVjwgLhRCJCtA8JwUqoo7ZFIhEDS2QmIchohCxOQx5XTgOidLLXDp5Epc3mNf9FM+Fn3abtshhI79sVvdm6byYELeHbOhtXmwoRQd8SmdnqTejbBE9xI1mi8R/dnqG/74ve5kibttd976TIlRBfsZDGBUuKcljXlN8lOT+yJfK2Ousf3kIvqb+7pFB9ybe29X7IkS4r40TyW/v7f800FF0cjv91V+8VTrVp98DXdvX+yOVKbdzORpQDKXhbwkwdkEE/XJZIbaM2/ocfmclfx+E6gqLFifqG1+/p/4SzfUI2Rj6hdlr9FYgtiHIADc9bPqRLgLG6qHdaPB+S4M17+n51fPAuhz9vw/+VPnFoYct3fEIIEuYMJf4CeggzzkzYNW9zor7hJ2klJX+vHJ+yldnQnuiVbqjYo4Nf7xt+i3EZchwbWOu4GSrOUj269cQtrmVGHrZEsuEg3EakFWjJdxw2Q06zITUOxO/M5GLMlBDOHuzrv8Y9+XGzMRIKfEkdk1pDNQsQiqD1YgmA2RQSqZ20GdYLRnRdAyusqqvM0ChJ3LEv9jNIJaB0G1o1htJbTOUQJauEmZcH/O6+r7ptwMvGaE90jaZWxSIkY6DUoWIlIL9UICeKDr9MvZEc+VzIL93Vd4sLaziRfoBpNGzIA96pKepy7PueI/G/MnVGbfSiHNIxT6c32V+WfbH707m17qxnWaN5aHecezCQ3kdlm5tlzXqDnENXZSm/dgZGJYashqCsa1jnCV9JeSCz14rqiKc2TwovL5t5ihte5A4RHf6ha7usrNGODT7fVnsRStkd2VhEvY9BUoZsLNIMokPx37ncVu7qvWvJlJ8XdvNCPEaibDVCDzkNSdCrnCiafNMS4jr8iM0F2dv/bZdX9bGhe3MSo0XmCBHFg8oWQabhRwb+l6kzUsRS66yhANvtZK19ybdcq8tKQljaEU9t4RiQ0ZN8yRP57B74mns0msBBp9DdWYPJTDfd9Xs1+offprvuA1nTeS9+pye67JHB+1AWrfBqg7AO1WLBaLlHuZl8xRal7FHbmTU2Dif+n4vmibwnzYbftS7xeFrWfXZsL+xNvkV9baWm6jK/ECkW5AF6TP6l4ZGj1aALJwYdtr6VSrP6hfktNasbQ6dV+9sKszmZXCw5ciSR3taTfJBWz5FVZG9yZUvtGcwS4Yma561LfDDzaDp7qw0eOQ8n7qWVVH3ws601l0RCC8d/nG+VR8WxwSeomKTjyadnNFzLDE1ZDGUOkCcypeb26Q1XFQyQQtwCvoh8ya08veHjsq6XCTUVeyT3Q9dZInAhwOfzQXip0T9BDptIZjx+6E9biCmr/SoMpHcH/adDSgo5g4MoN2R9TsXlkF+Y1xX5Hug2tFC9DcEFcsc9PvjB9+KrSUVr6tHOyGoON5gd2DcQtQ9GVvGiSKO8FOUoYiL9NrkZ6mr6LDxjzTWnN1Y/vq///j4yvzEy85pWfyNK/dBaIdUNwC0n7r0Zaxu2/PQNv271K6hMaspmaP6kX0bKuaOeUnvOjAbS4/VZcccwc6WGwolGXic0DSdFPoVyp8yY5jT/U3vd97BfNL3h3lPbnmiuWe6GehPG2z/DS89Y4lyQdBCzEU9bvo6j2ZMGKQWkXLBRnUudGLqbPJ9dDd8L+dtQqr2l5pym0JeJreerZlsZpQPg9QTXXoSKqaVmtcCHEOtQ/nt6w5WdkQdNvyV8++KW37XXXVx4l6lujDcK4KXQWiLVaZGxS5etkcBUCXXv6Us+bAvzgts7vnjhIJbaTJ7DyeHbItWLlKWb4mW4IDW94TPyZ5BItGbepHGCTGllXnOpMq9cUvEy83U1PusE9nDwIikd+Znh+uACMx+5fOXInLel5nb0KcXFLa91Nq4O+BpxG856TuR+DKT32XOWh6LnI53EadC69tpLTN0f8EVaa24k0x2Ps5MfcKRzUcIUfHwYhx03rq6puhx+T03VZfObn5s36dawK9dAPWaJosPr7XkRRc9HOqVIke43kQmRbFnMPtUcfh/pl8CaQzYMKlvWh/fg3OZbjDhv0LdiVuMfFk7+fl2gy7UF93PjVgTGfhVFxYujpPkn1fqaoadHqArTxrAFQxmrYvBo3xVPvWFPvaSyL6az/YW1fIWxK9lA3I6notClX5IjR8lpXWvNqsI+Pc27lIypJEnpHtl4NYW+HE3hH3NLjhxoKMoHsLlVDccbV5SpqNram8H4THj+IfXiPEkIeYYkyI/eR6peE+nNzeNPPuod+NJ5sEponFr39ffi144b3vkQUje31p6njhYBrvxKkqhpOLBNVW8HG5dHryhRzOnWvJc4USbXPzTymG2v66cRv0hPYJK6VZI/cdibDBurzyIbJ+9wDJCmId6GdmLobrmf4z07pfackP9c5X9bwrefPOXxjvqLfcaRNZk6wxsGezCeUreNKcTTG60pBWmyTdUXYT8bCS4mefVQ9jVmbiAwOw2si73Rn2I/O7PxNi6/j+y6U1rf6Wxc7QkbpGOJwEM9ustfwCIc5bM841lxaYmqfxhnGNQETsGcKkrek82lqC4W5Fc6hkZIj6pEQqdp2ktZY9JzvjeuveSuWR/8LParc+IOWbRitTLechh4s7LQpl0uhJ5ow1mDg2uxsqvM2Iinf7Uv+gDesKoLdi2Z8vr8ybdBbKLPJxQupAZAWtEGIRav8gakZImk0jV2m/IDZOcEyj2Iu080b9f7JX/F009htGtb3UcJ+MturkwOIZf+zeRbq2sDnUZ1CDYK+Et94FQyjdxn3O4oTcmRXYZFhpYdrB9TGYN0fu09JIa+pNGSd++J/jgrDmMMtOqqVgmtNlAq02QdlhnCkkHKXlJn2AcLw1XtZRc4jaeKKAdBI3fCUFN1GWEKdcG5Zh/xCfPqA6s76n4yu/FPAV8TU2Gw2QBfB5V0oqkfbu25MZ7aOkHqzW/EiSEkW2GohjcjBDniEPzgSePoCc4Gn5D/XL+vuiawEG+qO55+meOv0yHGZqLuqh9PZ3uJ50RPKnnYA6J+66wJAb9U+9tRXiR/28NVc8NVJ4X9U6ur2nSWqBB6C2fcN3TqBxJmVk8gafshmDKkY6vW3kx0fvBdQDeuDS48kaQzONO5tbuia+WG6IrcGPBFwJfyQCXo1A9YCWCweCAdHug2vHE0jdJCm3GF88YpwyyRCxHF2uBTmCSqCXRxQzgvTWVfTI4crfa30ipFOtdDzIlmEabgE0JB3wrQQ5vc42vypmdGuGpqiF6RJxrqArPpJphIP7Dh+AMt4dtaalZWsGMWb1iiTK4/jTW9UjvaLTD0SElPpXZW11IblsmRPYQpBP2TybNRU3WybIkU1lMzynrg/IIBETJ5kRX00MjjdJM9kfyWfMlN1lF3VW1VJ7NEUJ1lMiEjegyyvv4k5sp3fWje6FQR/pekL7lucs3Z2rwroQcAxgunx1kxQdzRJ5G3+ozI52cKN8O0D4IwQWpuQHlBHodkA0UFCwhmFE9o62gxUJionppSe+W+/setGK4yP5IvmdK21n5mUvUZfj5UtjZgytS4vXJgxGog7kbpXeDuZOPJHCML4I0Z60QG0xLVBWcW/mgIXoeXQjz9K4qHrXIi6QlJn1BNng0PbTPxIiLBxT5hnnXpy3z2QPyzG09c/l7swYpx1eINS4QXhycS+pyKHJ2G/XYqR+cLICftYebC1fWQDX1bzU1WvyUn7pD12uaeD+zo+05f0vMBMv1l2JoxT+Yg7NpYwYGMF7J2VmCGMdyFzLrAKWJu7JBLfQB/qiiR2tw0ashAhQKuCCiHenT0Gg3Iyep4wgTeJYD5MW5lkF3D4l4h6HSQgUsI2eCMJQ+PouUhEgzoopClQJjEQP5lSs25PckV9gRuKUi2w4kVLTVXtITPLRBeEeXwHUSiGt+jjClzsenLBUfzACfC3tRTH5ynkmn4p5DJj84zTEBaNLPxVjvfKFu9Q4mbZMnWPfA3Lzpv8YAlym/qwSB7wnyN9cGeKqLlOJXcjRaDhyB3v7ba79r8UrmvHh4o2KMnvWWPxsU7QyNZ2uBopHLD+HyN/Hcy041HcRuCqwCKhH/KoT+1gcM9YafcnM72EdZVQ/CzcJcXVp4BZBinVYvnzsage9v0ho830Dj8gWGPZH604fhlRxJPeskSuRkDmV240mwpRKyZt0QvsOHHgIHZTV8lP6BDwo+2nPiqewK9etgSRVOv4D3YWL0EZMvY2RgaeZxpKwYM+ITQ/OZvO2WMCl13W++HDsbdPteZXztTuCUkKpkpz3iEMa2Ux7O54QRW1MCQf4WuV4SG4HXx9K9w2dnu5vDpZYsMiQ9FwR19ubpVv+Lo4N8OD9xsUb9Z1robfClsTyBCt0HpEmaFv0XFB1sZspBUMEb7YtPxNqNQwdHBryfSb86ZdCui02FIE/DWbMR3NSeK4Xqerw+ebfA7wVTR8BscAwMuM5rd9I/T6n/qYB5kcrT5xNVJt+6E9HPw0/BYIVtNmU/I2wfSmFsKG0PLdd9YR7CrKJ55SpJuRv9IovwTzrfYzDS5df1GTtzUtxEvM5ANXNRfSvipRwmN21Z7UW3g2X3937FnnxGIrLh9e+91s5t+UnCtb4p7QugtlXoWUDp0odsZO8TTeVnZe9AmiTC9VtcFZur/HuzCjvmVE3cMZPYZ1Q9krcrOhSzb3oS4q41WfvBWbGn1Q0jKKK9Q51k2AYsm/2xqnWPkKCvu2B29ubArBaxVsFwCAItq1b3qTK6snLQD48Gaqssg56rqgyvx1WLKYX/yicyvOQbvK7X2uotOnvI2eVRebGO0ve9zbjuw5l5LFEtvwHuwqfo82BRSYCm+IUi/SVKianZkjKGIgC8yq+nm+c3P1ju04WhX9FZXbX3060pBCPsFmTZ4s6nVIiPq3p96EVeazTN6hZyfcNU07MoaGnk8nf3mOO955qx+kIr+oj4dY6eIQxFWKDNrePNE4HyTgOKKEKsbo4wCWazNm3TLQOaqvuS6E8lv2dk06dza7sG/TKu/gjO5Dk7Yx4zMhUs5kWytsY+tw/cNkewqGhVom9j3nIEuZHs0I3KtrNfaar9rqTsRDY4Ofh2c+mTqTCPNMNfvUTbXk2zAH8hsdLZm2AbLCtZrMkNZOvnRrshDtu2EPDLwexeps1J0WpCpKgyz+E+5bBadu0oIHE/XjR5eaLNRynMqyB3F8R6/6wKnxrE2THL55bwfdUo3SWZ800mqbNRVXTMw8hsySxStQticRjO4l1H6WN4zrMsVkmoA/fAb3wNxRSJC9q8a3wNWi6SjZ0NN1cvkKzXyf48nn46mHs2JO6xrx0T6AVkb1ga6yteqscsXsz1Hk6DkZp+NicwzuER3HoK1mkuSt3h6ogR+YXAQ1VVtMxquzVOkRmspkktokRst0WBmP976PYc2DYQYZsdYoG3H717+OYSVM5DZyUbpxIFPCE2qXr5g8n8umvzK5PBtFtEiN0j+8WtnxqtgpRlvhVMpms7nM2Khins3DvT4Z0xQ4xnMbTvyp2MgvZfnQH2kfYlumB1ExFJ/a6+5TFs/QMgncOlEEAS/r46wwXJSElQNYLwzHs1PPjZEletIsP/oeMs3dfjOTDg5FMmDIuXwtuqBT4kIKYMBwsCJEY3eDwfaOwOrO+ov7U48QX2VLZ7aNKX2HP25BUg8ODNrixCZxoOWyDXSDNNJ49DI49t7H7c6e+ncOvkbgniSEOBE0wjfnhxhnGjiQu51MxpXt9O2R4nMxincOUydjYM8yJMjT7i8QyQym3B7Emko56Hs62xAMnsk26P5zc/J1J6SQHva8UKVs0QyAStcaq44esl8snCZpWSaS01H5Wsos8f9XSGWfhX96A2vXPl9le2Er86JOyCq3rqTVroCRwOxeEGAKHlQPCKCj41dZvIMnr0CAXZaSDo8LWlcrjh1wa5FLfdSmczOittFLqMey6Wyq1qucJVap3ihFFk9CnSP7LlOnfWnPeB8YyDzYE76io/HiRoWrrqUkPQNZvY0VS8re1tT9Vm1gafVznjHW7ThvfFLGb9wBIOZfUcHHwr42mc0XEuSjk8IzWv+9o5eCtGrkiPdhJt+CeHnTM7wocTDHGfXx9/MG6dcuLk/9SNvdKb03vrgAg5SdqASCveE/QsILVEivblxfPg23e1aVUKDfBnt20pkthESIsQfNe1ubtcPmVMazByi/ALZImTsK4MftUHdgw8pJ5knVZ89tpcHoYC6pMPHB2c33bK5ZxvptqPx6kfH4R9QGxJKmCnjatF6BZH0mBiE5Kv9BYxdRfiK0PEtULwUzgmSPc5TW3XimfU8FKAXhQLCVaRfnn5jZynoaiieXk9XmskwKjKvanedjgRwe3iQhbLeV1B0H9jDwekCyC+Qx40GkWyDdka/syO6Uu1Q4VDiPo02hBXQQBvK35vJ4dWk/Tm1Xa1DUVpQJ6vq2zQXKNNUF+e2GWuSrTq2ZxXTwXZtYDbpVJG0g9xkx9KPcQx2abHd0X/bGV0pi3qtJso+cWSAQkM0V7/f67XkLksUSz3llYpL514azuJ4eKn2twV9pCumJ4b+RMaq1uckthvAPhsEcSx1PPmv5N+VCnA441c7JMXzdg5RiZBTOeD+qBExLg9vD9VdPL0x7G/TTm2AtQH8U13gA+lhopLKPXsw88naqk7DWoXiaPJ+wrKrvcfqNDcw42NunsjMZBBp7wV3h2JB08M180FwvBf/1zlNa6r9bYhzW5AJLKIqldNBGLDgP3EIU2xe4kSxtMccbsRwPSg1BJeRv/3o4EN4D/YOv5zJrWOExSJkcrFd0X/bAeVBoNzeFb0ej2IrLyXMdrhqOlNnysB+xVt9Thb5OQnH612tgZtts7SoJ2naoKSyx44OfZ/ZC4ts0IH4g5t6lmM4+SU0RgOZ3YSZ9wnVLrBExQU8yC4vNQstv6wGAFyG0Kym5bi0F500x9JbjPxvgNv8SpJYqG6uvoX87QcHPjc4sl+9EKk0pe5mM9luHhz4IZUZIvWal87iF7DKA6kNXT2CHqegTCY1/RDs4cWMqbUP+tbEQrIilz6Y+M3mnuW9w9/BrtKCMRpI7zMqeyljxVGjDKLe5DOEDRqu6uB1O1JxiRxcGIXsUi6twYGVqWTe5xu7RndUClrNTHKhpKM7uyRJg+k9nAcxmN6CV1cRGgJNxs7oyujwW2WrV75SI0d39v9jMvtHOiWHvsvbl/ni5HLDPclvk1dq3hj1rzw2+DfUjI3ixNBLCVx/W8VP4zwfHySsBEKb4BZ1FiPb3uIU+tOYe1sbggvJV9AK2B//1P74zyDEXlYNBwf+e0fsXDY9ZBECvkhH7Y9ppdY99E87ol8fRPPrKpuh9+KkPvnrA6scr0M/RzVcMoTElhO6r3ixC8ofMdkEGK16wNFcffmRQTprhf3pH8tX2H9pXWC5j6+pDcyVPzXD2cM5aSiWXkuNBxk0KEpEZpR9zxKWlwnqnRYljDgYPnBKzXnHkvNo+VeUm2xH9I/hqktbw1fWBWeDjh9yYiqW3tKbfJrKnEYkdKZRA0EaTpm0QWn3spEpXXHuTB7M3lq/VyOaeq2j9nKMByeHVxwbmoftE06v+z4hX/m/hhhNsRs+ITS19msHEjRDBiVHntgXzzeoTJ+Dvi6/UO8T6tLZIzkpTn7QbJwlCi5yBSdyfraFYOa/LnBtXdUp8O8V/PvZn3pxbABjYSDvTQnHEvn4UGvNDUcG/5EN48pAS83Z/anVViy8yN9p6z7VTdVfhkQqdZ0lMhXyCWX3msLo5D/6Uk9iF6C95qraQCcHDZ0OodnyPT4+fHAA3xLJRDqd/YbCn5VyoVRCc/U5dGmRbVATclPhEkAvoGDrgH/QOgGL97lCf3tn5MYtva9b6gOfOlprPuIrul1FiUYHNhxEVkP6hkbcOT9jTRLajMvvzekkzAD5QbChEcyFP5kWtdf+M2MTFQP5g3RS/Z0eynBD8LPOOgMpfdsczwF2aDMZjUEK0qba3+bjicLdxTL4UaonV58d9l/CxnDFYFL1ssnhW72S2466T7kkJ35E8pkr+sY3xZxRFh0GMviWqDawGCLKUHh74Zf6wIX9aXxGPZCPiXRjWTpqlJ/pdV/eHdvurSOpGk8dGDodwu1REsQ7v0b4OGKFdNReOZTZSjL5aA+aQl+WJQW8KQlVMErNuyXeWTT1KL4lqppNJQ+yRSMSmNLOoZH9BKSsdWrtbQ42waTgvzIuQxGy6J7TdFe4ytUuMYO+czojn3dPfhy2RMMjR7Gn92RJhbeRxwqLFk+/Q/J4Y/C0SSHHzMGU8EeZ+aBujDob/i+h6rcUsxq/5YYls3GWiDcDNacyOiADHlExeqo/9S521mVJpeF42nM6CEfkCvmsCXQQTxXhREdQV+z0umvqqq6xvwe0hL5dJURIUgBPdWELHPSjZJCnUI6toXRsSA5Rsip/JudNup/WTnq6mNn4kNznwbKbisiAUr3oTekwJ+pPv4j9LKGkgts1sygEQSPMg/wVtXn2OiCc3RK+mFEYiyAbowXNPw373SXTZDM0qXq52+rKSUtEGNqM1iRRAXWBJYQpJDKbySn9rMidtjEjHz+3s/5OvAglDKbmjKi4XqhgM4RjifAiWOlikCC0GWSSCMI5dTwbFEG+q2hgZJNZgqrXHsGZDd9oqf6ODWZoVsPPQ75WmzucKb0PiUoGEWUoNU8Ykc3USJHbdHrdZ2bU/87ZaSNZJy5qfrkptAyldcBIc5D6UW4Gmwl9ODjJiUhCmxGKKV0iTTpVlP4Jrcy011zWWfeobCysM0NddT+z3wxNZMgmYH7Tb6jsgMOA/N6FzT9zs7vrvCWSHLpIYuAqk0SEeaBr3eKqIGKEGasLLJjX+PsmC9bXa/2fmdPwu6Cv1agekD749Gqe+s2ET1l3VfkiMxpunNP4VF3gWjup0NzGp7siNykrZdZVLyQd+Cs4zbkz2EEtwD986fiJioBpyZ7q9YA020dy3qrBeFoHPDujkEwIOZTy1m1Jf5rMEqXXR0KLNJWpy9vL/iJn1c9XT6v7TGPwA8eHHx4c+Q0VKtQW/mYjDSdtyk5XDnePq46HdqBrgftp4TWm+SfQwTvKuSqU4aBTUgTP/IV+WBvomhO8ZTBz1Ynkk5bGGQ37L2kJf3xS+PSxsivOW5RSFGtDBIpcGjKq+tVWgvI4UKs6Pdx4MBbScewsfoxgA45s5kGPLRTIAvFU0eDIKxxH+XNXU9XZVfX1EfH63uEXoun/wduKHRA+2Bi8tCl4Npufdglke1QbuGkk939i6U29w38hDAusmUKNBC/LR5et6vRQhfAjIyNHuruNPi8gJ5KAzwsPWjvAoIqmJgKN4/OUbim+XUJgHOpz/+XTMTbnKN98kkMnKDcPjewfyu4aHNmAwpICgtwd31dfdZqs9VA8EyBxGQQyglI/wuNv8zt7DfipBLRF/inxgtniaZ2ad/mfeIff1Tf+8w1VlePTQSkypHEhA8SIE3F6gXrS2f7BkT0Dma0DmZfTWK41ZcUX9s9tCJ5SM2qASkoF6POlUWAcUB5yD8iJJAQ6CatMUWxrayvDiXhV9jWvxwhp5BRKdB1waMAZGyAS7xCI+eHM2LjCPXI/k6+W6pUcJxOlWCbXPyJGM2Kv+h4fHw75p4Z8bWoGRMu3oVn3T4ZKZ2cPt+ZgmV6n+f2Udp0fd/Xx9x80VwS9dFBMrc4vio8LM8qUAySPzPGbfMuaQsty4qcL35tMrq/QrMmRPTlpAFDu9dX+mfJftVVzfUIoXNVuVArFpijUQRkFnPF0CsgzOHCiBmJzlU6CYJt05okYvIUqITK6PbqTuq1kcBaF743WKBTHsE8hLJa5e7YfAmt1BgYGx+Evo0cA8VK6B4GKo0ziQDg5hCfzgI4tkc9yPFCf/wM3i2b0GorgwnNJIeHRfuulrikpxwG0X5CIYihbV3YUx/6m3J7ozAAAUy0Q8YuyJggJ+84h3CwZLzfrlBRQXpCK4lFEvWKJMF29gK1irCSRwqJjzcvgea6RjHUs2G8klF5rbLslMktknZkgHahgkVEyVsqhhPFqvQJKeMUwfNi44XRsCkInAXsdZybSCUoPh4So1ykOQiVIZvozSk8oawGYOmNgYHCZOiP/XGqoXQ5Y54NJJ+BmU278eYQPDm+GTZhaQ0ERbihL9ZiigzYV0lEEZuQ5Goelpc54vOfRqw7GOMykAy5amdqDgiQblaeMWxAlhyIKHwS5njFEMBsqkjV6Oo+BgYHBaTBLxMDA4DJ1Bpntl5B4spaJ6fBbhF1epjSUOa1hzDDBQ0+4ClUyLI6pKXDIegTZshFsnYUsChhSK5u4RafgPEyR0NGzoPyUEHQgb0amoTSlZCxnTI0dnYU2SK0AN6MctTPVIUuTMOqZDZ5nnIiBgYGpMwYGBoaCOkM5F2OKc5bm7UFqZ2aLkJ0790zFTcN8BRldt7A2bKxnlYrBklQ8ZMuejQCFNoqeJcwxgpQD31VaekNRpsAvmpjRZcqO0pEMlpsZJ2JgYGDqjIGBgaHsaQ/Izj1wjYkHeCDMnwsCgQeXDwTjLWFgNjjjXXngK3RcFwHVgrKshuQ0w9jnC5IQQFANpo7OYB6eQpEPkP2QAs7iGa3THubWj1D6mHGtCkCv40G/hWBfVXodQjeGTKfAdjYC7+KAUeDz+QyHufE5OEg/1PXZyDNOxMDAwNQZAwMDQ1GdmaO1KP4PUUg+ggyBsVCI1gDOrwlm9kxSX6KCOZZFOF0tmdo2Bj4OOThGr4SG/B+o+dLbL5wnndqhzjTk6F/hGXF2C/jy3Ifm8Ce3c2b2VYpzppAWGRD1kvERS3AZC2WSARwFKIEhdOJcgGoRko6xSETZjotySM1IUTKfjQzOQFrWadSPIZMmOmPvtBnae4wPKpvaTcLA1BkDAwNTZ3q8S4cwA9PsOi7pzHgkgJzcQd9tyB+N8f1D/MEot7eXS+Sjl/Eat+1LQ9xZo+S8o56bUs/JRL2phovU8Ch5xjqFZ060Qo6tgcJEFXSsbMPBdKixqtLRmIJQVhrAug3C2iKKB0KU6BF4rQMLbKNoHzBgRnGNCcWNp2ggPzm9NVxTcyaQ44HKKhhvrJ2VjCk3l9aLEc7BQSYZdJysqiOJV4g6iw3xmw7zm7v5pw9xm1Jlbt6Y4jYe0NbUhRFu1Sxpfiu3cKqdGeePxbjhkXGNama7qiDmyvfRSI0UCTvDt/f36Fg0hMV7XhythOoqqRUzqh0vvxptokfn2XAA571H5abMjPYoCWGKRDEBqnvaGrlQFWmP2n8C/E0xckb/ks9EdYCXM+BaTuRy8Ov388/s4NccJE3omRj3zHq+YJIuny+tmE/eJ5DG6oNvUsg8ChYHxTNbpPY6aUaTODUizphsR9/60J9JpgykL0zPfgMzPrjvvD9iZ1u6fnruGytNd8Vfv87dd0CXDqBizVnSqiWkI2KFYQRHuNde/ksz+Fs/7CVLpEOhUZ6C1gJOjT+1iX9se96C0MUzMf6Z1/ml70o3nCKtXFw5KnxzWth8aJyS+udZ0uK23PLOvM1FiMXowOEuXk+quCy+AE3c+y4nfwKrA+hajPp6qIAwta+z39h4oybEZZDmnzzIibYe5v/rFfo2aLyC469/3XfBdvHuC6W2CFeJEH6wh+P2+LiXZZMkXrRA7JzMMTgLudet3S5dtHRilt5Ta2epEf6nL/AX/cVaM6Tg2Zhw1sP8up0V3gN+sEeWUVXffUYoO7fCYAMtSo0wSzTKxAqXiokZhHYZdaA3Cq54SQXn2OqnlKt4jwKhCOUXyLvyv+49zl3xW+57u+yuoM+8JPz3a0qmx65RtcKXk7Fj9aOndMYed82mFv7+Q7I98v1sbX7aVZJ4ALDGBYpsVHCMqYCxii9esMSB/BAC7JCCz1e4YNMwhLToxe3l+2QRPgXy36MXfmFHdZNylcqujFzjPq/crNyjtBes86uK451zZ+v38Ssezy97OTJKb9/C/+bVCfFd+sGeqqv+wDNy5CQtemdi0iIvWCLZDF32jMOUQTZGj62fED1iU1omR8Lb+5lNcGy26C8bJ6glUvhSiZOJYuHijYFCayGCy0NmaMwYfeVtfv3+sjoCLDsoMRTG695uccVzwvp9uspLkQZgKairM1gOVfVJvVa1EwjKBVQChR4O4ivruf5BpHwqF6U6VxmAMejM2BSNA2bZDZrJ3ZzINWZorLLufpmLDU2Ub9THn2fMyLHP3p82MHXmGhyNucoMjSqXlPDzlydQ5/jWq/ld4Az24/YtE+ebV7JEyrIIp6a4heUwBJ0FUXDgggsK8k+ms/xtT7nxY7XmoPD2e+BSIIypFvmtUht2KRgalveH6zR0vcTbiwB/oVW2klgoXjokH2gLWtUKtqnOalpJq9Ku/D++W1b7SMBFHeAQBrUqSn4gsxZyz5Hcy4l+sc6mTUMYxujudRNndYP/w3Hh5V0cg/01P8FokSst0b4T9u8bMoGNKWHtjonTRXw/+PuE3W7nsDGaSLNFAgfdvliqFGDPUomXGusRc/WubHn6zvNur7Wfb8jrR0QVYLym4w1vXZtSvrU7IGpah4GPrq1Ymima67MEes1qWsTbS4vAdd7SntKiKAOBIoohW5rdurNx/X7X6jL14OS3HJ5AH+cnJhAHZLSIqbPRqr97nTcqbs1bE2g8PBsXth1hdsEBTJjZonHxznQcrAE6QjKORQsJ+QRxJafmuvmtg7SPdEifnMI1BMfSp+gM6NkYfzTGASf1dZylQLwUeuiT9fYhcUEHp+svwjjsMkVdZNTrHAmlrdOUlik2mRZJ17y/rGykJT+Nah7iRNTUu42iCbjLKwi/5u/U0rr+JPFji6TRwVPCv3L8tiP8nzZTMUn8M9uka97nZH1dEOG66jWNyr9+orzjSgxL9Pge7tNnMo7iAG7bzH3sZC5SU/mcyC1maP8JOjNES0PSf5wvLZiqf6x/QYd88e/fKXzmJdIMP7aHc9QSSZfPl1YtNiKq/P4e/nA//+RO/g/HKbxsU5o/FsN258pA1NPuXSd986LKLqPAqTfaAXuWwFlx0G8AZFcViveMEl7aTccM3X8Jt3Ca7ix9aSPi2XPF/z6HeHCm8gINIPCaynSo8/JSV4t49tzsv38095eLuCUhCn1l9wkNJ4e3O2kJOL0zZbRdf1D7Kli6EHrfgfzWFkfKBZxEy+ZyhQtvO6ViQHJFuGxnY2qEv2MLhYr7j/M5NC+LsjGS/mU26Wh5bY/7vzbigo7sfR/hlgRJC/telNETx2jRQ29XPidyRUXTWBSX7l4kizITQ/Tq0/NBh0jwljdWlGRVlb1nJWkbdSeYRXAMztEiV1giHV1jDFEmWoWrCB3+phzC0mxL29JNoTSXnMJD3UJq0Vgr3XAK2ZfquJRMqw9l6dWLsRcFYkavOTColtMaiSR2Tpa+MI2osG/0aDa0afwoas4bUtGYGoeBvNpHh8HpJ3JVqJ2aMOi0Nu+rlGmRUUmpZENdZHWH1npxBMYyuNsZbBTILwX/n67hRI8Ry5xvLcZYX5DOnEmac+98qXIfXUg4L8aoCaNFlazO8vO+xL1cuhBrmEVqpH+ZQ5T5Q/1eaWyxq4U0CXYAzVn8vmIdh5q2ROBcOorDkDJkbzfxMvOFEQ4rHFCeLp41g8gSvdtd9h1u8dAYqpIuaCBKobsfUi6Nwwca81tj/F/H76WdX0rgyJVjXl2spEXY4q7kih9iE8oterqDE20mniRaNQv/2UWEsyeeIsyd9YxYMFrE1JnBYN5AGkxCOnU6CVPgvngSyewJH0uyAcJQAbTIQfgReRrk4BiKeROMN/jl03mWdGs1P3MKmFXwhJThPsNTOjjuAL4d7B/iImGj+in9UXSUoWRDsI7dFytBETJFn4o8Waql81WmugRmxcJldbkKxy0kkLjxyUq+dBrLRqUm06JbLh43vgwOc2ELNGXAKq44wTOkpZ5gpil1xsXoH86f9sgf8iDEVa2kPX5uq+l+tCQondkindIhTWvkGiv8TBCD62jRJYe5hVMrqUwuOHfWR+z0YBrx3Ed7I5LB+sJ0ac4k6aQmsT1SOIHlek/UDBWKe17mfnVVpVkiAWDyOcDhHg/wwJKXAONfwD90mHzvAGkhZk1GZ5/6+akOcCsj3NOASPziSdycydKMJq6jiWuLKExVAKpFBJyBgCpGcsRs0VVMXS2CsWcMsG/YSq6VPwSh8i3RMzFu/T5uWZdmwBKEo86vfIHjVEf3AeYCRU2XaS+edwEn2tNHmsLkWgrZOHlK3hJ9aYY0exJ30iSpo1FAI0reAn//QY6hMvDzN7lfdTF1Rm9sJNKkSTRRsET858/mbj4/z25yuUrtuoTBy/I+5xjcSou8b4l43ufzGQoKZX4b0FlC8SkUAqbzTwq1i5NaIj4c0Oyv096AQNeloF8jZESEBcRSbQALZGB+9Bb1SAWJJkvw9SN+N9niwLQGzbkhw5Jafw4LMkNH+m4Jb/XNCUclP39T/MUMqlJegtS4dv4BYUkRMjGieZcLFPVDx0hTaKtAGWUFhN9uJHp+STurQ7fRorzD5cronKw1J4oZenkX/2yc6IM5m6kz9yluig6XHVZn6s6qcCrjfU0uhDheEOGtrAvAChetIkM0HfXdcEaKiT8W811DFjQF4WSfQHvRiqfdFpbKRcdo0bbD3AL79hbpzHUoVgKhKZU/xPGrck5zookUb9c5NrTTd/3/ks4grJrJatKlNvCPWyqgFE6vnUWJLRHJkbHK7qBHY9zu477/2cCRibIxS3T+fFalLsWaA9xVJ7jOFk8Xws+rFokEFafXJflltAaEXQMp85ROyox6LZTg2YBw+xJXROD/sLWz4h9ZcIsjuAOwyG8Jt2jzj23n3+nmQHfu8bTw0HGKvUS6frpUXz1Gwo0rQVNSGk71DRWBTpsaB+TCe699glBWvoRRbdbtlkYtkQ0SsbS/F+jG4NItr+r0moHm6nhnDGbnCGR9a0P/Ez9xKqts6yB95mT+mbVEpvP2LZLHY6JNLEvE/20Td/1rqN9hk8yMP/SlyhwnX50tdU5m5+ssxOkzuaVvEEY/5p/fLl2+zLt1IEgqV3s5USxciid8AQBmNYFRwGh5MuQ5t3hEHF9SiJO60j3uP0C7JJSPgMI55HnS+KU8FE4YbIJnQ1XcDaSsk//NVqd8+8JiWCiBD8pFwWP7iRiguuz2D0iA6yUG+nbs3PmkAa82pqiE6nKME7FOwGA4PO5aKJ7WyerBDsi06AriOKBe3uXo59BWcJD8ewC/lPxgIJzhwsR9B/hb8kmB7guUV+SUQ61W8nZx/BIer5zLMz6ew7l4w5501yLxmvdB6kuyrk1xNYJRxgiVFkqCsg7HL3whpPs/LBUe3U00W0S2ACeoHHKKwPFJZXwp65g6DnAQeoLuFmLeeU7Uzo6MudcMsXqwFZEawjignobTlkgmpQxuM0NrzmJmyJmaXzGfWxKamGWnYIlQIqCVnTmnydJtfFel4cKItPZSadUSVhO6PdzyRbpQlXSjk7RIGTumIruZGnE6EepdwYmogB1eI8eSkHTfWeJPLpM8fmigEmjRhZEJWHAXWKIvzSBNIcosESnEr54hrlrMxLLzkGnR9adPwHLrr50hhY4ytXQCnM+i7+cBPA+lmNvibL8zK1X0zkNZ+EX67UbxnHmmGsXylTIe6cCgzlknwowBnjB9xv2HTrwzfpzLUW5ZJ4WTaBhfo1H5WXZ4Qlw14hW68IcLONHcyaQp7DzGMRCigrz/VYJG++a5TJ3ZjpoAaQpDadZ3KVCQRzaySnALOlu46yeWu5tx8ZAlALrcbGylrHiRDoDpk4g5Uc8YrR29YDP5TuwkdMWpKBQ8dFzae1yz+inJf49ermMNSsaK7Q7vt5bnh7b0l65yhf8D6uMdbEFx9KCrC87iNxG7Mnj9ODcxcUFE6irFv+XXkMYyE/62NXfDCsZIXGECZFp09yL+9i0TpLwusETkkTk2pvIL+Y21E66zXj4/v+Cl2JH21/g7iDqu8P094qdOd8uR1wn7gVHa92MnTyxLBDlApKwaKIdNlDNcUrkARpyeS0P1v5WeuqqV+z3RrLO0+5h0+ixNNkDHcfz7Z3Pr9EPlyPdIwxlp5Z+t4LdGv/ASacqFpArVK124gNAS5ZP688bsp88EG1dAaGXKwhN6AgsiE/j9PXRbUDRuQQU+Wi9Tr7TKH9d7lnFfWW/bNIKpkVvyd4og3sEjaZKqpLxbdjYuJN1Nx289inRfpIbrajG8vI62CPk0p3CnY25udOCenDhFiz6ylNRbiEfgCkvEdzaTJvHobgr5eOs9z3dcGtOcvpd2uqU83f04Tx2OVs4ADVVNkGOx5SyR4jQPZWVKSZTnNRckwfyPc4hD+slMfsshIx+JqMP4kV1UtJK9tmdckfPTnMRnBXz3bUB6s2rtowCtm0rysCvGNgXmsHFfL1GNzmnWnKO0QRZBFlhtOv9h8PaS00XF26qm75nt80ULoFgS1+xs5EYnrVeS1rX0x01Ej7+1j9CRsFtoEflZgU1p4W1X0EN+UzfOU6+QuS4k3+BGnRZNgPMfrjkB+8HppCncd4DbdwJ/AN/3RoXMLCzrJJ9Z8P2CxizpHOLd808fND1VFBsiPSfRXOfGNv1khYcCF8btB1MkGGQPnkKujO+Buc0HXjHmfeAMCl5KpYfeVrO+kjYs6w3+pR3c06THfDSO9HmVtwSji0KRRy9l19kYvkQ6s8A/G/dt75aLU4q2UARI50vRFjT1TE4uNqb4rYeNnObr1iH/pw2kL51Uoy+B1V5u6G5SVQ09w1u+aLHHqPFzCzrzKsDILXUA4GYdv0CKvlOHk1D1FrdwIn4mDZP/8/fyNsUsjvZL33utkj4v4op55A63hD9vJe3bc1tptOmbJmhRbIh8A447/aJIlX7+wzXqLBTgv03BQZd09QvmNFpqRLrnxcqYIRo3s3D5LNJvw/0H+WNkPJGKa2BZaj30JmJTCv/+LOnrXOwbSFx95kSxRAqDUugWio7QiXakPIUyu66wvtPphJEQz35Uemuf+pWGpZDZ0I2PEG6qRBRQ4zSUgds6mr32Y0spdI5ntsPIOci3AYNIZ3bjts3cT57P7ztVnYPT1qHMhu74K0ccg1v6wFSd/ly8dI7j4a0faRpLfaoLkmBbRLp7kd1iRakNn69wkSpTcH7GRWtnhTIvnEq+gjZW2Eufkn7yvGxoIDReevAVafnvyaeHXIpIjXQXaa8V7tzKx5JESZw+lU5xvreL//jv+EfXc/u1hJfff4L/zavC0t/yD9E4HbKw3c2tmg85XaFwVzRq/opF0tOv0EnruzvF7+7krmrlz5jG1QT4uW35Hw9FpWSae2Gv1TzIFb327Fk8R3z444Uducvwd0tK81upHQCRFfRX1vPceoXnWlJps1pc7QFd/sCsOYu//vXKtEQCcJBExzediq1pOyvo8rFExCSje3SJoHD+gtzJ67kN9GZtfn9MGjU6tu04VIosWh0ka7QtNPHBx7VO15T8HOeaAyTF8f3PdvHDS2SdZcqbXwnzO3xLQtwmj0zDyVpSHuqQc4JK9QKh9Hxk7aj+n5KK0a3kFfP5pe/Sn9k0UFymgiH6QEeakKfGF9llHvVDAf6mZRwDLbN4CfG0wqaU8BaRL0fpmgWeqa4Pz/dALiv0/IfrYnsI5y2YIEf+7BhaC6ZyF5BOvQm/JfLlKJ4/3zPVdXqXN/K5aknlxf8QOOMIRGV1CPmqgU6CwSrh6x4O+6dUpiP+A0Gvm+L1y0lp+7Nx4W0CWiTrneune6Dh7l6EHtpEWTujssUR0Z+n+jbpi5TPf4ztBAZg0XLhuJEyerLPjfHO+HPm81e1cgxUBtiiqRR2OT5KNPMtffJUD1SUt5allnVxn6yoMeLSyIv8P5/HNJp7phX4PxwncT8mdbaQbymwFveclvdd5a1vzBcrKmK4wEEP0YD+tBWA8WpBlQdyvNKxNdDbgOocCt/WKNy1wsmK+dZi6xSTzSnnD3+Qfxue3GL0LpTtr+Inlrs34vvSkPjhpSiyqCRMgNOXPKV9BTrVazQ8u6ie/9AbkupNzpDDm8rAz4li4ULaqKna4si5ORo1v3wmlfMfE4Krl6VF5Lscv7+HaJdjqEr80SqXkosfXeTR4LeVdP5DcHPm+NUfpBCrGoerL/McVy/TZakc/vgz0SJaXqPdd5brzNCas9x55BUJTpz/sMwSqTw/WLUcpmKzOq+AvlT46oWczbPXF0akDy/BqARNpDCbBpJGMRlVZqRG+pfZpH1F4+JaCTRWJOcQNxFjVbRqsatGjpyZ/Io4+v3Gq8ySjaHOx4nCS5zfW6RzUg/9cKInOFGB1Qvf/gf7mNHSkHT3So9y9TKj6OKF5ImQu7iWrnm/S4xR3gxd837Pt6tM3tdUwtS14IE8ysbolov5Hy63/EVLQ+Kaj+UjZFQi8uKIeF+P8PMNFHIiG6PHLnRelFWAGSqU5dz5FbDQLHDQgLPg6oyyUFJydgE6VC9e4BS6ap+UqA18rLMtr+izXf778mXcUx+1sMaLZojQZQfENbrOGhMhowe0WGnxQs/LvXTBXNJa2pQq7XJEWExRe00fW2AtNOxpM8TXr5Qc8Yh6QUR88RJzokzp/MAiGh0xrh5fCNB2tuoA9zXiCTi1xxVVt4H4SDHlJ6QUX0MPHuFEChZO5R/7NGfFgtr1J4kPf6pS2VCpsy3rpHD4Y81bdDLTFhH/42P5OWwbV/fl1+V+cqmHp6iNcPY8r5//EDyW31AVf+0H+HVXUIhgo0wMPXah+M1VFTk3BEL8NPEi2rNxftsRavlZtTj38FV5e3SBlQNpSUj6wam5DVfng3dXakN/6QxPZ9+v9qQN8isekBEl7QY8peNSAHiczvavrhbulou5G4e457ZxD27B9JBwYUS6fH4+mJTFXRMM1uxAWDSlIU7v4pa8SeimQ/jzltyCDl2Cb1gJkCwF/bmVi7iVi2QDJ6w/wD+2l6IXEemrs6UzT5IWTaPbynTbT6LSx5bPlL40I+/KHTcP8tAWgLGsM3IVH/iClscov0CimYtAsPixO0dGRg4fOaJJqPQOFD8jxpaIQygPWGYOyKsEvGtcMfad4HYe4945nA80hGCAuA9Ok5ZNz59TR7MgkEowZVPAzJei+inpGMeYl4BvAAdUJqQHQEKbKNlAsZWgYTX1lIQQY144Fuc3HuL29vIberhnTTrVlOnPWS3cKR3S9CZxfrvhJ9bMmVUwh2A4RsiwBMcnJGW8w7SQ3gL+IQBuyMCsgt0GHKdgkcF3oVgi+R+am5srwhKpf4kNcdFBrm+I6x1QfZD5fMSbqU1Se2Ph24hiQZglcsoSacrOH41xqQw3PMIf1A8JKzXXFkIDaSaAYGSfWSIXWqLuo0fLNhihoIAZIHCcI5g/Uy+VsHobbzzOTVkisA4h6eh4uQTfbuwWUsdMAKXgsOoZkg5k8KCMNIi9MKcvwLZQUgbGDMq7IOOqZJKKPhsFn6+s6dcLDYgzvlAMK5ig4l4SzKHyS6kUxRqDdCTB2MWrufaSpEmTJnltxpqBgaESwSwRAwOD8/DrslBfkaSZEjgQiCpNaCTKaGlmWmx/IkMynoricVM0FImWARRleMod9iUH50qMtZjOvCfYaSFqGjK+EOatzA0HM+2FlHK5qQDGiRgYGJg6Y2BgYJDVme6BEXBZF6J9wEVKnR0iwBoeCseTitmQjO/RWZVDmdJHIJ/gWh7IgcFqga15oQgKMPPgQhtYG8Y1j7JyB94jGGcDU86A2VAqU/knsNeRrbVD1kNzximb245rpnphmVfK7vNRGdjgEAbblDfeo1i6RymXMr6AsQNKy5JNQGmd0T8YJ2JgYGDqjIGBgaGwdmaSZWvJHsoyBMomMTwGrrOmA1Fe1h/4onzCTlcXA2VHyQ/h3jlQpoHakEPYX8cZb2TlaFcd3gqgCMhGyBocRNOZYwRFUQYTyIRlN75HNI4arzNHgSLzjQe+zlEBl3vUZ2BgYOqMgYGBwUZ1Jqmc/kkI5LPEVMHlMGPaZoo9lnipwhWBRTREhmriHuPTtqYArq/xWJqFhxyFRdE1plbuAN0HW+I0liqScWWaWlGCeZ7hqYUVM1SLoOAC6gdc3cNT5TrnDcGVaOMaM3cI2Vi5o2QMfGlOGZXKjmjgAK0yHJQDejpr3K6NRs3AwMDUGQMDA4Pt6gyVPRZ/8Rnva0LxhGID8ByY6EzpA44RkEgswtoQR+OcDmfFwTraCUKUqcLbBUHAa2bDPBt3AFO6mENQytT7KmyNCXKMzpSTE4WGAEpQZ+8ugjMscGqCL2oxUO/rrPyynY0MDAxMnTEwMDCo1FnO+JSZDv0zPvmlrKpIxktdCiGEneEyVg08liiDrGeBp59KCQJPwXQfREyZofQ62wWBt/NYCUIyT7juA/YEzthfKqR18FwRmlqxha1Rokhv2koZXJ7LZbOGA61YUcoSlWi8y5SHrMEZ9yjFryOkOD7jBTvJWAnyxhuhxdG7GSdiYGBg6oyBgYFB47PR1Aw8LCaH64sNoaxIWgxFUZpSVeA/WbaMBTYckvoAWlmnoiCR75zwn4l52hGhOChPIbaK4diBuPFH8X+iLE2C69cIHlFMiXrGiRgYGJg6Y2BgYLBCnYGbzXiDQyIyRkDHjAgrJkgxpIDzLHhuxkHOKUFUA2RHIiXH/njhHgllGuS0kbnogwgaHGWxyZxvQzMnImFSBWFVTufInnFTwrKK5bNRWeoSsI7sQQaIKWWKEhgOFmXPuOEgi9QFp7GMEzEwMDB1xsDAwFBQZyi0TdnyBGF9oLiTzPjPB4PES4A0ELBkGsgeRRS/Jcb83wbQejvE/b6udjKk0MYKV+dx45tRxAKSjgB6gqmKQhI4ZgSyiLATVUCJFAC8XWc0gWc/lQFiZiqAVoRBFE84ZTs240QMDAxMnTEwMDBo1s6U8ywlKg4oJshRF4gbbQhtg7g95xB2cEF4u+KlvLQYZ+awm04UMDAsFCUX/TzC2wlfai4d0OEDCpMnC2EAc1MJCfpmpurgry+rHyG7Q1Hiyolm5B5KOGmdGjMjfsFFanCFSwlMDwvkpxyaAxJUSiEAtoV5BWFgYGDqjIGBgUFXnYEc2BT7lxCoeMlPiHEAXBRKj8S3URaJsABZvNDRCGY8Y1D3y2HH0T8ErQFRMXhC0pHza5ABImGFk4C1IGEBTSlcyCwK40QMDAxMnTEwMDA4AF4UxczICDolk1DEFNZmMzzdR3h4isFugeMc//fIiOTtrx/6ItEkqqqq/r8AAwDQI8iNlGwSswAAAABJRU5ErkJggg==;" vertex="1" parent="1">
          <mxGeometry x="100" y="370" width="137" height="137" as="geometry" />
        </mxCell>
      </root>
    </mxGraphModel>
  </diagram>
</mxfile>
